<svg width="55" height="16" viewBox="0 0 55 16" fill="none" xmlns="http://www.w3.org/2000/svg">
<path d="M1.00781 7C0.455528 7 0.0078125 7.44772 0.0078125 8C0.0078125 8.55228 0.455528 9 1.00781 9V7ZM54.2149 8.70711C54.6054 8.31658 54.6054 7.68342 54.2149 7.29289L47.851 0.928932C47.4604 0.538408 46.8273 0.538408 46.4367 0.928932C46.0462 1.31946 46.0462 1.95262 46.4367 2.34315L52.0936 8L46.4367 13.6569C46.0462 14.0474 46.0462 14.6805 46.4367 15.0711C46.8273 15.4616 47.4604 15.4616 47.851 15.0711L54.2149 8.70711ZM1.00781 9H53.5078V7H1.00781V9Z" fill="#A4A4A4"/>
</svg>
