<svg width="55" height="16" viewBox="0 0 55 16" fill="none" xmlns="http://www.w3.org/2000/svg">
<path d="M53.5078 7C54.0601 7 54.5078 7.44772 54.5078 8C54.5078 8.55228 54.0601 9 53.5078 9V7ZM0.300705 8.70711C-0.089817 8.31658 -0.089817 7.68342 0.300705 7.29289L6.66467 0.928932C7.05519 0.538408 7.68835 0.538408 8.07888 0.928932C8.46941 1.31946 8.46941 1.95262 8.07888 2.34315L2.42203 8L8.07888 13.6569C8.46941 14.0474 8.46941 14.6805 8.07888 15.0711C7.68835 15.4616 7.05519 15.4616 6.66467 15.0711L0.300705 8.70711ZM53.5078 9H1.00781V7H53.5078V9Z" fill="#A4A4A4"/>
</svg>
