<?xml version="1.0" encoding="utf-8"?><svg xmlns="http://www.w3.org/2000/svg" xmlns:xlink="http://www.w3.org/1999/xlink"><symbol viewBox="0 0 24 24" id="about" xmlns="http://www.w3.org/2000/svg"><path d="M23.25 6.188c-.478.013-.948.13-1.377.34-.925.463-1.436 1.341-1.436 2.472v2.767l-.902.902c-.178-1.177-1.179-1.858-1.223-1.887a.562.562 0 00-.71.07l-4.5 4.5a.562.562 0 00-.165.398v7.5a.562.562 0 101.126 0v-7.267l3.957-3.957c.182.208.378.513.412.884.049.524-.23 1.093-.83 1.692l-2.25 2.25a.562.562 0 00.796.796l2.25-2.25 3-3a.563.563 0 00.165-.398V9c0-.7.256-1.175.785-1.451a1.97 1.97 0 01.34-.138v5.885l-3.62 4.344a.562.562 0 00-.13.36v5.25a.562.562 0 101.125 0v-5.046l3.62-4.344a.562.562 0 00.13-.36V6.75a.563.563 0 00-.563-.563zM6.398 10.852a.563.563 0 00-.71-.07c-.044.03-1.045.71-1.223 1.887l-.902-.902V9c0-1.131-.51-2.009-1.436-2.472a3.333 3.333 0 00-1.377-.34.562.562 0 00-.563.562v6.75c0 .132.047.259.13.36l3.62 4.344v5.046a.562.562 0 101.126 0V18a.563.563 0 00-.13-.36l-3.62-4.344V7.411c.106.033.21.074.31.123.548.274.815.753.815 1.466v3c0 .15.059.292.164.398l3 3 2.25 2.25a.562.562 0 00.796-.796l-2.25-2.25c-.6-.599-.879-1.168-.83-1.692.034-.371.23-.676.413-.884l3.957 3.957v7.267a.562.562 0 101.124 0v-7.5a.564.564 0 00-.164-.398l-4.5-4.5zM9 5.063h1.313V10.5a.562.562 0 00.562.563h2.25a.562.562 0 00.563-.563V5.062H15a.562.562 0 00.563-.562V3A.563.563 0 0015 2.437h-1.313V.75a.563.563 0 00-.562-.563h-2.25a.562.562 0 00-.563.563v1.688H9A.563.563 0 008.437 3v1.5A.563.563 0 009 5.063zm.563-1.5h1.312A.562.562 0 0011.438 3V1.312h1.124V3a.563.563 0 00.563.563h1.313v.374h-1.313a.562.562 0 00-.563.563v5.438h-1.124V4.5a.563.563 0 00-.563-.563H9.562v-.374zm7.875.187a.563.563 0 00.562.563h.75a.562.562 0 100-1.125H18a.562.562 0 00-.563.562zm-.141-2.062a.56.56 0 00.281-.076l.65-.375a.561.561 0 10-.563-.974l-.65.375a.562.562 0 00.282 1.05zm-.281 5.174l.65.375a.562.562 0 00.562-.974l-.65-.375a.563.563 0 10-.562.974zM5.25 4.313H6a.563.563 0 100-1.125h-.75a.563.563 0 100 1.124zm.523-3.076l.65.375a.562.562 0 10.562-.974l-.65-.375a.563.563 0 00-.562.974zm.649 4.651l-.65.375a.563.563 0 10.563.974l.65-.375a.562.562 0 10-.563-.974z"/></symbol><symbol viewBox="0 0 22 22" id="giving" xmlns="http://www.w3.org/2000/svg"><g clip-path="url(#ba)"><path d="M17.78 0c-1.832 0-2.933 1.175-3.533 2.16-.6-.985-1.7-2.16-3.532-2.16-2.43 0-4.177 2.021-4.177 4.48 0 2.668 2.07 4.396 5.203 7.012 1.906 1.59 2.065 1.752 2.506 2.13.48-.398.624-.603 2.79-2.269C19.341 9.58 22 7.405 22 4.48 22 2.051 20.235 0 17.78 0zm-1.53 10.331c-.61.47-1.29.992-2 1.588-.588-.503-1.143-.966-1.682-1.416C9.61 8.034 7.827 6.545 7.827 4.479c0-1.818 1.241-3.19 2.888-3.19 1.783 0 2.59 1.69 2.853 2.416l.154.42h1.05l.154-.42c.264-.726 1.07-2.416 2.853-2.416 1.671 0 2.931 1.372 2.931 3.19 0 2.42-2.565 4.395-4.46 5.852z"/><path d="M11.7 21.91a6.56 6.56 0 005.315-1.465l4.266-3.57a1.938 1.938 0 00.269-2.748 1.93 1.93 0 00-2.69-.282l-2.765 2.253a3.248 3.248 0 01-.606.398 1.936 1.936 0 00-1.91-2.23H9.977c-.444-.417-1.529-1.29-2.845-1.29-1.319 0-2.433.878-2.883 1.29H0v6.445h4.459l7.242 1.2zm-9.122-2.488H1.29v-3.867h1.29v3.867zm1.29-3.867h.925c.616-.647 1.445-1.29 2.34-1.29.89 0 1.688.632 2.29 1.29h4.155a.645.645 0 010 1.289h-3.223v1.289h3.678a4.52 4.52 0 002.883-1.042l2.745-2.236a.65.65 0 01.806 1.021l-4.284 3.585a5.27 5.27 0 01-4.271 1.178l-7.347-1.217h-.698v-3.867z"/></g><defs><clipPath id="ba"><path d="M0 0h22v22H0z"/></clipPath></defs></symbol><symbol viewBox="0 0 26 26" id="involved" xmlns="http://www.w3.org/2000/svg"><g clip-path="url(#ca)"><path d="M13 9.79c-1.77 0-3.21 1.44-3.21 3.21s1.44 3.21 3.21 3.21 3.21-1.44 3.21-3.21S14.77 9.79 13 9.79zm0 4.896c-.93 0-1.686-.756-1.686-1.686 0-.93.756-1.686 1.686-1.686.93 0 1.686.756 1.686 1.686 0 .93-.756 1.686-1.686 1.686zm-5.804-7.49L6.117 6.118A9.67 9.67 0 003.264 13a9.67 9.67 0 002.854 6.882l1.078-1.077A8.157 8.157 0 014.787 13c0-2.19.855-4.251 2.409-5.804z"/><path d="M4.889 4.889L3.812 3.812A12.912 12.912 0 000 13c0 3.467 1.354 6.73 3.812 9.188l1.077-1.077a11.399 11.399 0 01-3.366-8.11 11.4 11.4 0 013.366-8.112zm17.299-1.077l-1.077 1.077A11.398 11.398 0 0124.477 13c0 3.06-1.196 5.94-3.366 8.111l1.077 1.077A12.912 12.912 0 0026 13c0-3.467-1.354-6.73-3.812-9.188z"/><path d="M19.882 6.118l-1.077 1.078A8.157 8.157 0 0121.213 13c0 2.19-.855 4.252-2.409 5.805l1.078 1.077A9.67 9.67 0 0022.736 13a9.67 9.67 0 00-2.854-6.882z"/><path d="M17.575 8.425l-1.077 1.077A4.915 4.915 0 0117.949 13c0 1.32-.515 2.562-1.451 3.498l1.077 1.077A6.43 6.43 0 0019.473 13a6.429 6.429 0 00-1.898-4.575zM9.502 9.502L8.425 8.425A6.429 6.429 0 006.527 13a6.43 6.43 0 001.898 4.575l1.077-1.077A4.916 4.916 0 018.051 13c0-1.32.515-2.562 1.451-3.498z"/></g><defs><clipPath id="ca"><path d="M0 0h26v26H0z"/></clipPath></defs></symbol><symbol viewBox="0 0 18 10" id="right" xmlns="http://www.w3.org/2000/svg"><path fill-rule="evenodd" clip-rule="evenodd" d="M13.332.199l4.463 4.32a.664.664 0 010 .961l-4.463 4.321a.718.718 0 01-.992 0 .664.664 0 010-.96l3.266-3.162H0V4.321h15.606L12.34 1.159a.664.664 0 010-.96.718.718 0 01.992 0z"/></symbol></svg>