<?xml version="1.0" encoding="utf-8"?><svg xmlns="http://www.w3.org/2000/svg" xmlns:xlink="http://www.w3.org/1999/xlink"><symbol viewBox="0 0 16 15" id="arrow_top" xmlns="http://www.w3.org/2000/svg"><path d="M8.715.293a1 1 0 00-1.414 0L.937 6.657A1 1 0 002.35 8.07l5.657-5.657 5.657 5.657a1 1 0 001.414-1.414L8.715.293zM9.008 15V1h-2v14h2z"/></symbol><symbol viewBox="0 0 16 16" id="chekbox" xmlns="http://www.w3.org/2000/svg"><path d="M1.81 5.65l4.59 6.356L14.19 0 16 1.997 6.4 16 0 7.647 1.81 5.65z"/></symbol><symbol viewBox="0 0 24 24" id="chevron" xmlns="http://www.w3.org/2000/svg"><path d="M16.293 9.293L12 13.586 7.707 9.293l-1.414 1.414L12 16.414l5.707-5.707z"/></symbol><symbol viewBox="0 0 7 11" id="chevron_right" xmlns="http://www.w3.org/2000/svg"><path d="M1.352 10.032l4.423-4.516L1.352 1"/></symbol><symbol viewBox="0 0 16 16" id="clock" xmlns="http://www.w3.org/2000/svg"><path d="M8 3.5a.5.5 0 00-1 0V9a.5.5 0 00.252.434l3.5 2a.5.5 0 00.496-.868L8 8.71V3.5z"/><path d="M8 16A8 8 0 108 0a8 8 0 000 16zm7-8A7 7 0 111 8a7 7 0 0114 0z"/></symbol><symbol viewBox="0 0 1024 1024" id="location" xmlns="http://www.w3.org/2000/svg"><path d="M800 416a288 288 0 10-576 0c0 118.144 94.528 272.128 288 456.576C705.472 688.128 800 534.144 800 416zM512 960C277.312 746.688 160 565.312 160 416a352 352 0 01704 0c0 149.312-117.312 330.688-352 544z"/><path d="M512 512a96 96 0 100-192 96 96 0 000 192zm0 64a160 160 0 110-320 160 160 0 010 320z"/></symbol><symbol viewBox="0 0 48 48" id="mail" xmlns="http://www.w3.org/2000/svg"><path d="M37.75 9c2.9 0 5.25 2.35 5.25 5.25v19.5c0 2.9-2.35 5.25-5.25 5.25h-27.5A5.25 5.25 0 015 33.75v-19.5C5 11.35 7.35 9 10.25 9h27.5zm2.75 9.351l-15.898 8.744a1.25 1.25 0 01-1.077.061l-.127-.06L7.5 18.35v15.4a2.75 2.75 0 002.75 2.75h27.5a2.75 2.75 0 002.75-2.75V18.351zM37.75 11.5h-27.5a2.75 2.75 0 00-2.75 2.75v1.249L24 24.573l16.5-9.075V14.25a2.75 2.75 0 00-2.75-2.75z"/></symbol><symbol viewBox="0 0 55 16" id="next" xmlns="http://www.w3.org/2000/svg"><path d="M1.008 7a1 1 0 000 2V7zm53.207 1.707a1 1 0 000-1.414L47.85.929a1 1 0 00-1.414 1.414L52.094 8l-5.657 5.657a1 1 0 001.414 1.414l6.364-6.364zM1.008 9h52.5V7h-52.5v2z"/></symbol><symbol viewBox="0 0 28 28" id="phone" xmlns="http://www.w3.org/2000/svg"><path d="M14.825 23.763c2.819 1.46 6.164 2.491 10.117 2.877a.977.977 0 001.066-.982v-4.587a1 1 0 00-.751-.969l-4.937-1.27a1 1 0 00-.967.271l-4.528 4.66zm0 0C9.957 21.242 6.66 17.441 4.51 13.476m0 0C2.32 9.439 1.322 5.232 1.066 2.03A.963.963 0 012.041 1h4.392a1 1 0 01.982.81L8.72 8.526a1 1 0 01-.264.887L4.51 13.476z"/></symbol><symbol viewBox="0 0 55 16" id="prew" xmlns="http://www.w3.org/2000/svg"><path d="M53.508 7a1 1 0 110 2V7zM.3 8.707a1 1 0 010-1.414L6.665.929a1 1 0 111.414 1.414L2.422 8l5.657 5.657a1 1 0 11-1.414 1.414L.3 8.707zM53.508 9h-52.5V7h52.5v2z"/></symbol><symbol viewBox="0 0 18 10" id="right" xmlns="http://www.w3.org/2000/svg"><path fill-rule="evenodd" clip-rule="evenodd" d="M13.332.199l4.463 4.32a.664.664 0 010 .961l-4.463 4.321a.718.718 0 01-.992 0 .664.664 0 010-.96l3.266-3.162H0V4.321h15.606L12.34 1.159a.664.664 0 010-.96.718.718 0 01.992 0z"/></symbol></svg>