<svg width="1913" height="707" viewBox="0 0 1913 707" fill="none" xmlns="http://www.w3.org/2000/svg">
<path fill-rule="evenodd" clip-rule="evenodd" d="M584.202 25.1366C473.048 -21.6781 365.948 0.825888 306.28 60.2431C289.429 77.0233 276.365 96.7456 268.066 118.675C248.649 140.812 237.273 167.704 236.772 197.471C236.165 233.516 251.505 273.708 287.689 314.72C313.694 344.194 356.939 371.519 412.997 395.366C445.211 412.97 482.531 428.985 524.01 443.172C571.063 459.266 623.483 473.012 679.899 484.056C674.08 493.579 667.496 502.823 660.111 511.726C620.335 559.68 557.314 597.768 465.597 616.129C171.975 674.91 29.1421 557.33 -5.54984 491.41L-6.43478 491.876C28.5143 558.284 171.854 675.954 465.793 617.11C557.688 598.713 620.93 560.529 660.881 512.364C668.379 503.325 675.055 493.935 680.946 484.26C704.122 488.78 727.971 492.844 752.396 496.427C743.433 517.903 731.957 538.494 717.761 557.777C674.529 616.505 606.046 663.133 506.398 685.61C187.395 757.565 32.1813 613.644 -5.53929 532.886L-6.44533 533.309C31.5008 614.55 187.221 758.63 506.618 686.585C606.47 664.062 675.174 617.315 718.567 558.37C732.864 538.949 744.411 518.207 753.417 496.577C791.745 502.176 831.489 506.593 872.282 509.735C1134.15 529.902 1439.36 497.499 1691.21 387.458C1791.88 343.47 1868.14 323.103 1925.11 319.155C1982.09 315.206 2019.72 327.675 2043.22 349.292C2066.72 370.91 2076.18 401.758 2076.64 434.761C2077.09 467.764 2068.53 502.868 2056.05 532.906L2056.97 533.289C2069.49 503.16 2078.09 467.919 2077.64 434.747C2077.18 401.575 2067.67 370.421 2043.9 348.556C2020.12 326.69 1982.18 314.197 1925.05 318.157C1867.91 322.117 1791.53 342.53 1690.81 386.542C1439.15 496.501 1134.11 528.896 872.359 508.738C831.675 505.604 792.038 501.202 753.812 495.624C756.279 489.644 758.552 483.598 760.635 477.493C777.212 479.311 794.007 480.92 810.989 482.31C1055.81 502.351 1339.49 476.926 1567.11 376.927C1736.67 302.44 1851.01 262.376 1917.2 253.201C1933.74 250.908 1947.24 250.549 1957.84 252.053C1968.44 253.557 1976.07 256.917 1980.93 262.018C1985.78 267.107 1987.94 273.995 1987.44 282.698C1986.95 291.412 1983.79 301.919 1978.05 314.177L1978.96 314.601C1984.73 302.286 1987.94 291.648 1988.44 282.755C1988.95 273.849 1986.74 266.665 1981.66 261.328C1976.58 256.004 1968.7 252.584 1957.98 251.063C1947.26 249.541 1933.65 249.911 1917.06 252.211C1850.72 261.407 1736.25 301.529 1566.71 376.011C1339.28 475.923 1055.79 501.346 811.071 481.313C794.173 479.93 777.461 478.33 760.965 476.523C773.892 438.249 779.417 397.714 778.633 357.15C775.88 214.825 695.433 71.984 584.202 25.1366ZM759.947 476.411C772.884 438.197 778.417 397.705 777.633 357.17C774.885 215.12 694.582 72.7107 583.814 26.0582C472.967 -20.6272 366.318 1.86884 306.986 60.9517C290.868 77.0015 278.239 95.7531 269.96 116.558C273.526 112.652 277.347 108.9 281.406 105.313C336.334 56.7677 434.903 38.3924 537.198 76.6298C639.579 114.899 713.654 231.604 716.189 347.92C717.082 388.91 709.092 429.865 690.319 467.332C713.018 470.767 736.259 473.803 759.947 476.411ZM267.08 121.354C248.864 142.939 238.253 168.882 237.772 197.488C237.17 233.223 252.375 273.182 288.439 314.059C312.889 341.771 352.722 367.629 404.265 390.483C365.128 368.088 334.126 343.239 313.114 316.406C273.809 266.21 257.162 217.039 257.82 172.965C258.092 154.792 261.305 137.493 267.08 121.354ZM413.433 394.464C370.272 370.873 336.343 344.449 313.901 315.789C274.707 265.735 258.166 216.781 258.82 172.98C259.104 153.981 262.623 135.944 268.938 119.198C272.973 114.608 277.359 110.224 282.068 106.062C336.663 57.812 434.822 39.4296 536.848 77.5665C638.788 115.671 712.662 231.97 715.189 347.942C716.082 388.891 708.077 429.787 689.279 467.175C614.108 455.752 544.893 439.955 485.005 420.818C459.341 412.618 435.396 403.806 413.433 394.464ZM422.649 399.386C452.642 415.036 486.768 429.378 524.334 442.226C571.44 458.338 623.94 472.097 680.453 483.145C683.44 478.206 686.222 473.193 688.804 468.114C613.712 456.688 544.558 440.898 484.7 421.771C462.71 414.744 441.97 407.266 422.649 399.386ZM681.498 483.349C704.624 487.853 728.42 491.903 752.792 495.475C755.259 489.508 757.532 483.474 759.617 477.381C735.879 474.764 712.591 471.718 689.846 468.272C687.265 473.366 684.484 478.394 681.498 483.349Z" fill="url(#paint0_linear_323_18)"/>
<path fill-rule="evenodd" clip-rule="evenodd" d="M1438.37 25.1314C1558.65 -21.6733 1674.53 0.82527 1739.1 60.2295C1757.33 77.007 1771.47 96.7289 1780.45 118.66C1801.47 140.796 1813.79 167.691 1814.33 197.471C1814.98 233.529 1798.38 273.726 1759.22 314.735C1731.07 344.205 1684.28 371.527 1623.61 395.372C1588.74 412.975 1548.35 428.99 1503.46 443.176C1452.54 459.27 1395.8 473.016 1334.74 484.06C1341.03 493.576 1348.15 502.814 1356.14 511.711C1399.19 559.669 1467.41 597.764 1566.69 616.128C1884.52 674.915 2039.13 557.318 2076.68 491.396L2077.55 491.891C2039.73 558.296 1884.61 675.949 1566.51 617.111C1467.07 598.717 1398.63 560.54 1355.4 512.379C1347.27 503.333 1340.04 493.936 1333.66 484.254C1308.56 488.777 1282.73 492.845 1256.27 496.431C1265.97 517.899 1278.38 538.485 1293.74 557.762C1340.54 616.492 1414.67 663.127 1522.53 685.608C1867.84 757.572 2035.85 613.628 2076.67 532.872L2077.56 533.323C2036.49 614.567 1867.97 758.623 1522.33 686.587C1414.27 664.068 1339.92 617.328 1292.96 558.386C1277.48 538.958 1264.98 518.209 1255.23 496.571C1213.74 502.173 1170.71 506.592 1126.54 509.735C843.126 529.902 512.805 497.499 240.245 387.464C131.281 343.474 48.7362 323.104 -12.9392 319.155C-74.6157 315.205 -115.365 327.678 -140.814 349.305C-166.255 370.926 -176.491 401.771 -176.98 434.761C-177.469 467.757 -168.205 502.857 -154.698 532.892L-155.61 533.302C-169.16 503.171 -178.471 467.925 -177.979 434.747C-177.488 401.563 -167.186 370.404 -141.461 348.543C-115.743 326.687 -74.6973 314.198 -12.8752 318.157C48.9482 322.116 131.604 342.526 240.619 386.536C513.003 496.501 843.163 528.897 1126.47 508.737C1170.51 505.604 1213.42 501.2 1254.81 495.62C1252.14 489.64 1249.68 483.594 1247.42 477.489C1229.47 479.309 1211.27 480.919 1192.88 482.31C927.917 502.351 620.903 476.926 374.554 376.932C191.046 302.446 67.2816 262.378 -4.36426 253.202C-22.2712 250.909 -36.8975 250.549 -48.374 252.054C-59.856 253.559 -68.1323 256.925 -73.4021 262.032C-78.6543 267.123 -80.9807 274.005 -80.4453 282.695C-79.9089 291.403 -76.4983 301.906 -70.2871 314.163L-71.1792 314.616C-77.4194 302.3 -80.8953 291.658 -81.4436 282.757C-81.9929 273.839 -79.6021 266.649 -74.0979 261.314C-68.6116 255.997 -60.093 252.582 -48.5039 251.062C-36.9097 249.542 -22.1895 249.911 -4.23706 252.21C67.5546 261.405 191.431 301.523 374.93 376.006C621.09 475.923 927.937 501.346 1192.8 481.313C1211.1 479.929 1229.2 478.328 1247.07 476.52C1233.08 438.247 1227.1 397.713 1227.95 357.149C1230.93 214.802 1318.01 71.969 1438.37 25.1314ZM1248.09 476.415C1234.09 438.199 1228.1 397.706 1228.95 357.17C1231.92 215.143 1318.82 72.7258 1438.73 26.0634C1558.73 -20.6319 1674.19 1.86954 1738.42 60.9654C1755.9 77.0454 1769.58 95.8344 1778.54 116.68C1774.64 112.725 1770.46 108.928 1766.02 105.3C1706.59 56.7682 1599.93 38.396 1489.24 76.6256C1378.46 114.885 1298.28 231.579 1295.53 347.919C1294.56 388.91 1303.21 429.864 1323.52 467.328C1298.93 470.766 1273.76 473.805 1248.09 476.415ZM1781.48 121.222C1801.28 142.838 1812.81 168.83 1813.33 197.489C1813.98 233.21 1797.53 273.165 1758.49 314.044C1732 341.789 1688.82 367.675 1632.95 390.549C1675.35 368.141 1708.94 343.275 1731.7 316.421C1774.24 266.227 1792.26 217.05 1791.55 172.964C1791.25 154.741 1787.76 137.397 1781.48 121.222ZM1623.2 394.458C1669.92 370.864 1706.64 344.437 1730.94 315.774C1773.36 265.718 1791.26 216.769 1790.55 172.98C1790.24 153.988 1786.43 135.955 1779.6 119.212C1775.23 114.622 1770.48 110.238 1765.39 106.075C1706.28 57.8116 1600.01 39.4261 1489.57 77.5708C1379.21 115.686 1299.27 231.994 1296.53 347.943C1295.57 388.891 1304.23 429.789 1324.58 467.18C1405.96 455.757 1480.89 439.957 1545.73 420.815C1573.51 412.614 1599.42 403.801 1623.2 394.458ZM1613.33 399.328C1580.84 415 1543.87 429.36 1503.16 442.223C1452.16 458.34 1395.32 472.102 1334.14 483.152C1330.9 478.212 1327.89 473.198 1325.09 468.118C1406.37 456.693 1481.22 440.902 1546.01 421.774C1569.87 414.729 1592.37 407.23 1613.33 399.328ZM1333.07 483.345C1308.02 487.852 1282.24 491.906 1255.84 495.48C1253.17 489.513 1250.71 483.478 1248.45 477.384C1274.17 474.765 1299.39 471.716 1324.04 468.267C1326.83 473.361 1329.84 478.39 1333.07 483.345Z" fill="url(#paint0_linear_342_95)"/>
<defs>

<linearGradient id="paint0_linear_323_18" x1="1391.24" y1="1162.6" x2="930.44" y2="52.394" gradientUnits="userSpaceOnUse"> -->
<stop stop-color="white"/>
<stop offset="1" stop-color="white" stop-opacity="0.1"/>
</linearGradient>
</defs>
</svg>
