<?xml version="1.0" standalone="no"?>
<!DOCTYPE svg PUBLIC "-//W3C//DTD SVG 20010904//EN"
 "http://www.w3.org/TR/2001/REC-SVG-20010904/DTD/svg10.dtd">
<svg version="1.0" xmlns="http://www.w3.org/2000/svg"
 width="260.000000pt" height="260.000000pt" viewBox="0 0 260.000000 260.000000"
 preserveAspectRatio="xMidYMid meet">
<metadata>
Created by potrace 1.14, written by Peter Selinger 2001-2017
</metadata>
<g transform="translate(0.000000,260.000000) scale(0.100000,-0.100000)"
fill="#000000" stroke="none">
<path d="M630 1874 c-102 -20 -225 -84 -300 -156 -66 -63 -140 -182 -155 -248
-2 -8 -8 -34 -13 -57 -5 -23 -10 -74 -10 -113 -1 -399 407 -688 763 -538 139
58 220 141 481 488 163 217 274 332 368 380 59 29 72 32 123 27 116 -12 238
-99 285 -205 26 -57 31 -84 30 -162 -1 -161 -119 -309 -277 -345 -72 -17 -116
-11 -183 25 -68 37 -108 73 -182 164 -42 52 -57 64 -65 54 -92 -122 -125 -166
-125 -170 0 -6 32 -42 109 -122 109 -114 222 -167 366 -172 321 -10 586 249
585 571 0 68 -4 98 -24 170 -32 118 -152 267 -271 335 -125 71 -271 96 -388
65 -175 -46 -291 -149 -527 -470 -64 -87 -175 -230 -190 -245 -3 -3 -34 -38
-69 -78 -104 -119 -208 -158 -328 -124 -99 29 -210 139 -238 237 -66 226 77
448 305 472 52 5 63 2 121 -28 43 -22 95 -65 157 -126 51 -51 94 -93 96 -93 2
0 23 26 47 58 23 31 53 71 66 88 l24 32 -48 53 c-114 126 -179 174 -281 211
-56 19 -199 32 -252 22z"/>
</g>
</svg>
